<svg width="168" height="48" viewBox="0 0 168 48" fill="none" xmlns="http://www.w3.org/2000/svg">
<path d="M28.1567 47.9997H20.3693C17.523 47.9997 15.209 45.6858 15.209 42.8394V23.434C15.209 18.4341 20.6877 15.2454 23.5527 15.2454H30.056L30.0533 18.4368L23.5527 18.4395C22.2687 18.4395 18.4031 20.4565 18.4031 23.434V42.8394C18.4031 43.9228 19.2832 44.803 20.3666 44.803H28.1567C29.2401 44.803 30.1202 43.9228 30.1202 42.8394V35.3169C30.1202 32.4706 32.4342 30.1566 35.2805 30.1566H42.9368C44.0202 30.1566 44.9003 29.2765 44.9003 28.193V20.403C44.9003 19.3196 44.0202 18.4395 42.9368 18.4395L33.2474 18.4368L33.2501 15.2454H42.9368C45.7831 15.2454 48.0971 17.5594 48.0971 20.4057V28.1957C48.0971 31.0421 45.7831 33.356 42.9368 33.356H35.2805C34.1971 33.356 33.317 34.2362 33.317 35.3196V42.8421C33.317 45.6858 31.003 47.9997 28.1567 47.9997Z" fill="#317FA8"/>
<path d="M28.0911 0H20.3038C17.4574 0 15.1434 2.31399 15.1434 5.16034V12.6828C15.1434 13.7663 14.2633 14.6464 13.1799 14.6464H5.52362C2.67728 14.6464 0.363281 16.9604 0.363281 19.8067V27.5967C0.363281 30.4431 2.67728 32.7571 5.52362 32.7571H24.9077C27.7727 32.7571 33.2514 29.5683 33.2514 24.5685V5.16034C33.2514 2.31399 30.9374 0 28.0911 0ZM24.9077 29.5603H5.52362C4.44019 29.5603 3.56007 28.6802 3.56007 27.5967V19.8067C3.56007 18.7233 4.44019 17.8432 5.52362 17.8432H13.1799C16.0262 17.8432 18.3402 15.5292 18.3402 12.6828V5.16034C18.3402 4.07691 19.2203 3.19679 20.3038 3.19679H28.0938C29.1772 3.19679 30.0573 4.07691 30.0573 5.16034V15.1707H30.0466V20.9918H30.0573V24.5685C30.0573 27.5432 26.1917 29.5603 24.9077 29.5603Z" fill="#219A97"/>
<path d="M77.6278 30.1881V18.329H60.9894V30.1881H58.9727V4.07666H60.9894V16.5039H77.6278V4.07666H79.6374V30.1881H77.6278Z" fill="black"/>
<path d="M84.0059 20.9776C84.0059 15.4599 88.1814 11.4619 93.3654 11.4619C98.5493 11.4619 103.179 14.6362 102.469 21.8298H85.8735C86.2428 26.1545 89.5662 28.6541 93.3725 28.6541C95.8011 28.6541 98.6345 27.6884 100.012 25.8562L101.319 26.9001C99.5293 29.2507 96.3195 30.4437 93.3725 30.4437C88.1814 30.4508 84.0059 26.8362 84.0059 20.9776ZM100.829 20.232C100.793 15.6801 97.8037 13.1449 93.3654 13.1449C89.5591 13.1449 86.2783 15.7156 85.8664 20.232H100.829Z" fill="black"/>
<path d="M124.922 11.7673V30.1951H123.097V26.2752C121.308 29.1441 118.545 30.4934 115.563 30.4934C110.414 30.4934 106.203 26.6161 106.203 20.9777C106.203 15.3463 110.414 11.54 115.563 11.54C118.545 11.54 121.57 12.9177 123.097 15.7937V11.7673H124.922ZM108.028 20.9777C108.028 25.6006 111.387 28.6968 115.563 28.6968C125.824 28.6968 125.824 13.2941 115.563 13.2941C111.387 13.2941 108.028 16.3547 108.028 20.9777Z" fill="black"/>
<path d="M131.712 4.07666H129.887V30.1881H131.712V4.07666Z" fill="black"/>
<path d="M141.038 6.20703V11.7673H147.301V13.2941H141.038V24.5213C141.038 27.0209 141.563 28.7749 144.432 28.7749C145.327 28.7749 146.335 28.4767 147.265 28.0293L147.897 29.5206C146.74 30.0816 145.582 30.4508 144.425 30.4508C140.505 30.4508 139.241 28.1358 139.241 24.5213V13.2941H135.328V11.7673H139.241V6.39167L141.038 6.20703Z" fill="black"/>
<path d="M153.27 4.07668V15.1902C154.761 12.5414 157.339 11.533 159.909 11.4975C165.058 11.4975 167.628 14.8209 167.628 19.6285V30.181H165.839V19.6285C165.839 15.8222 164.049 13.2516 159.909 13.2516C156.032 13.2516 153.341 16.2341 153.341 20.0759V30.181H151.516V4.06958H153.27V4.07668Z" fill="black"/>
<path d="M145.857 42.0615H141.22C141.049 42.0615 140.9 42.1609 140.829 42.31L140.204 43.6806C140.133 43.8297 139.984 43.9291 139.814 43.9291H138.72C138.408 43.9291 138.202 43.6095 138.33 43.3255L142.399 34.25C142.47 34.0938 142.619 33.9944 142.789 33.9944H144.28C144.451 33.9944 144.6 34.0938 144.671 34.25L148.74 43.3255C148.868 43.6095 148.662 43.9291 148.349 43.9291H147.242C147.071 43.9291 146.922 43.8297 146.851 43.6734L146.24 42.31C146.176 42.1609 146.027 42.0615 145.857 42.0615ZM143.144 36.9911L141.951 39.718C141.83 40.0021 142.036 40.3145 142.342 40.3145H144.721C145.033 40.3145 145.239 39.995 145.111 39.718L143.918 36.9911C143.776 36.6432 143.293 36.6432 143.144 36.9911Z" fill="black"/>
<path d="M154.393 41.0105H152.014C151.78 41.0105 151.588 41.2022 151.588 41.4366V43.503C151.588 43.7374 151.397 43.9291 151.162 43.9291H150.147C149.912 43.9291 149.721 43.7374 149.721 43.503V34.4276C149.721 34.1932 149.912 34.0015 150.147 34.0015C151.567 34.0015 152.98 33.9873 154.4 33.9873C159.251 33.9873 159.265 41.0105 154.393 41.0105ZM151.581 38.8659C151.581 39.1002 151.773 39.292 152.007 39.292H154.386C156.786 39.292 156.772 35.7697 154.386 35.7697H152.007C151.773 35.7697 151.581 35.9615 151.581 36.1958V38.8659Z" fill="black"/>
<path d="M163.985 41.0105H161.606C161.372 41.0105 161.18 41.2022 161.18 41.4366V43.503C161.18 43.7374 160.988 43.9291 160.754 43.9291H159.739C159.504 43.9291 159.312 43.7374 159.312 43.503V34.4276C159.312 34.1932 159.504 34.0015 159.739 34.0015C161.159 34.0015 162.572 33.9873 163.992 33.9873C168.842 33.9873 168.857 41.0105 163.985 41.0105ZM161.173 38.8659C161.173 39.1002 161.365 39.292 161.599 39.292H163.978C166.378 39.292 166.364 35.7697 163.978 35.7697H161.599C161.365 35.7697 161.173 35.9615 161.173 36.1958V38.8659Z" fill="black"/>
</svg>
