<svg width="100" height="48" viewBox="0 0 100 48" fill="none" xmlns="http://www.w3.org/2000/svg">
<path d="M26.6504 1.17131C25.8025 1.86522 24.6704 3.6887 23.3008 6.55305L17.2147 20.8305L11.1782 6.5087C9.9521 3.73044 9.00775 1.99565 8.30079 1.34348C7.64079 0.691305 6.88688 0.344348 5.89557 0.213913C4.95122 0.0443479 3.25296 0 0.800781 0L3.58426 6.5087L10.8964 23.8226L13.6799 30.3757C16.6043 30.3757 18.8217 29.7679 20.3321 28.5522C21.4643 27.6835 22.5025 26.1235 23.5408 23.867L30.8947 6.5087L33.6782 0C31.5078 0 29.953 0 29.0086 0.174783C28.1112 0.305218 27.3104 0.652175 26.6504 1.17391V1.17131Z" fill="#F0F0F0"/>
<path d="M37.9721 1.90957C36.9808 2.95044 36.4617 4.51305 36.4617 6.5087V30.3783C38.9139 30.3783 40.706 29.9009 41.7913 28.9905C42.9704 27.9913 43.5365 26.3009 43.5365 23.8696V0C40.9904 0 39.1487 0.607827 37.9695 1.90957H37.9721Z" fill="#F0F0F0"/>
<path d="M77.2096 29.5957C78.0704 29.1626 78.6913 28.4661 79.0748 27.6C79.4583 26.6896 79.6017 25.4739 79.6017 23.9557L68.4652 15.2322L79.6017 6.5087C79.6017 4.94609 79.4113 3.73044 79.0278 2.86435C78.6443 1.95392 78.0235 1.26 77.1626 0.824349C76.1113 0.302609 74.533 0.0443479 72.4304 0.0443479H53.3113C51.1121 0.0443479 49.3904 0.477392 48.1956 1.43218C46.8104 2.47305 46.14 4.21044 46.14 6.55305H67.8887L46.14 23.9113V23.9557C46.14 26.2566 46.8078 27.947 48.2426 29.0322C49.3904 29.9426 51.1095 30.42 53.3087 30.42H72.4278C74.5304 30.42 76.1557 30.1174 77.207 29.5957H77.2096ZM57.3261 23.9113L62.6791 19.7452L67.9382 23.9113H57.3261Z" fill="#F0F0F0"/>
<path d="M89.2931 23.867V0C86.747 0 84.9052 0.607827 83.7261 1.90957C82.7348 2.95044 82.2157 4.51305 82.2157 6.5087V30.3783C84.6678 30.3783 86.46 29.9009 87.5452 28.9905C88.7244 27.9913 89.2904 26.3009 89.2904 23.8696L89.2931 23.867Z" fill="#F0F0F0"/>
<path d="M95.6609 30.3783C96.6522 30.3783 97.5 30.0313 98.16 29.4235C98.867 28.7739 99.1983 27.9913 99.1983 27.1226C99.1983 26.2122 98.867 25.4296 98.16 24.8218C97.5 24.1722 96.6496 23.867 95.6609 23.867C94.6722 23.867 93.8687 24.1696 93.1618 24.8218C92.5018 25.4296 92.1235 26.2096 92.1235 27.1226C92.1235 28.0357 92.5018 28.7713 93.1618 29.4235C93.8687 30.0313 94.7191 30.3783 95.6609 30.3783Z" fill="#F0F0F0"/>
<path d="M52.1914 37.1608C52.1914 35.5111 53.5287 34.1738 55.1784 34.1738H99.148V44.1833C99.148 46.2912 97.4392 47.9999 95.3313 47.9999H52.1914V37.1608Z" fill="#DDF140"/>
<path d="M74.881 38.5111L78.0552 37.057V35.4782L74.881 37.1262V38.5111Z" fill="#6639F4"/>
<path d="M60.0327 45.2581C59.4923 45.2581 59.0075 45.1626 58.5784 44.9715C58.1492 44.7724 57.8075 44.5057 57.5532 44.1713C57.3069 43.8369 57.1718 43.4666 57.1479 43.0606H58.8287C58.8605 43.3153 58.9837 43.5263 59.1982 43.6935C59.4207 43.8608 59.6949 43.9444 60.0207 43.9444C60.3386 43.9444 60.585 43.8807 60.7598 43.7533C60.9426 43.6259 61.034 43.4626 61.034 43.2636C61.034 43.0486 60.9227 42.8894 60.7002 42.7859C60.4856 42.6744 60.1399 42.555 59.6631 42.4276C59.1704 42.3081 58.7651 42.1847 58.4473 42.0573C58.1373 41.9299 57.8671 41.7349 57.6367 41.4721C57.4142 41.2094 57.3029 40.8551 57.3029 40.4092C57.3029 40.0429 57.4062 39.7085 57.6128 39.4059C57.8274 39.1034 58.1294 38.8645 58.5188 38.6894C58.9161 38.5142 59.381 38.4266 59.9135 38.4266C60.7002 38.4266 61.328 38.6257 61.7969 39.0238C62.2657 39.4139 62.524 39.9434 62.5717 40.6122H60.9744C60.9505 40.3495 60.8393 40.1424 60.6406 39.9912C60.4499 39.8319 60.1916 39.7523 59.8658 39.7523C59.5638 39.7523 59.3294 39.808 59.1625 39.9195C59.0035 40.031 58.9241 40.1862 58.9241 40.3853C58.9241 40.6082 59.0353 40.7794 59.2578 40.8988C59.4803 41.0103 59.826 41.1258 60.2949 41.2452C60.7717 41.3646 61.1651 41.488 61.475 41.6154C61.7849 41.7428 62.0512 41.9419 62.2737 42.2126C62.5041 42.4753 62.6233 42.8257 62.6313 43.2636C62.6313 43.6458 62.524 43.9881 62.3094 44.2907C62.1028 44.5933 61.8008 44.8321 61.4035 45.0073C61.0141 45.1745 60.5572 45.2581 60.0327 45.2581Z" fill="#6639F4"/>
<path d="M63.5721 41.8185C63.5721 41.1497 63.7032 40.5565 63.9654 40.0389C64.2356 39.5214 64.5972 39.1233 65.0502 38.8446C65.5111 38.5659 66.0237 38.4266 66.5879 38.4266C67.0806 38.4266 67.5098 38.5261 67.8753 38.7252C68.2488 38.9242 68.5468 39.175 68.7693 39.4776V38.5341H70.4501V45.1506H68.7693V44.1832C68.5548 44.4937 68.2568 44.7525 67.8753 44.9595C67.5018 45.1586 67.0687 45.2581 66.576 45.2581C66.0197 45.2581 65.5111 45.1148 65.0502 44.8281C64.5972 44.5415 64.2356 44.1394 63.9654 43.6219C63.7032 43.0964 63.5721 42.4952 63.5721 41.8185ZM68.7693 41.8424C68.7693 41.4363 68.6899 41.0899 68.5309 40.8033C68.372 40.5087 68.1574 40.2858 67.8872 40.1345C67.617 39.9752 67.327 39.8956 67.017 39.8956C66.7071 39.8956 66.421 39.9713 66.1588 40.1225C65.8965 40.2738 65.682 40.4968 65.5151 40.7914C65.3561 41.078 65.2767 41.4204 65.2767 41.8185C65.2767 42.2166 65.3561 42.5669 65.5151 42.8695C65.682 43.1641 65.8965 43.391 66.1588 43.5502C66.429 43.7095 66.7151 43.7891 67.017 43.7891C67.327 43.7891 67.617 43.7135 67.8872 43.5622C68.1574 43.4029 68.372 43.18 68.5309 42.8934C68.6899 42.5988 68.7693 42.2484 68.7693 41.8424Z" fill="#6639F4"/>
<path d="M78.3144 38.5341V45.1506H76.6336V44.3146C76.419 44.6012 76.1369 44.8281 75.7873 44.9954C75.4455 45.1546 75.072 45.2342 74.6667 45.2342C74.1502 45.2342 73.6932 45.1267 73.2959 44.9118C72.8986 44.6888 72.5847 44.3663 72.3542 43.9444C72.1317 43.5144 72.0204 43.0048 72.0204 42.4156V38.5341H73.6893V42.1768C73.6893 42.7023 73.8204 43.1083 74.0826 43.395C74.3449 43.6736 74.7025 43.813 75.1555 43.813C75.6164 43.813 75.978 43.6736 76.2402 43.395C76.5025 43.1083 76.6336 42.7023 76.6336 42.1768V38.5341H78.3144Z" fill="#6639F4"/>
<path d="M79.5318 41.8185C79.5318 41.1497 79.6629 40.5565 79.9252 40.0389C80.1954 39.5214 80.5609 39.1233 81.0219 38.8446C81.4828 38.5659 81.9954 38.4266 82.5596 38.4266C82.9887 38.4266 83.398 38.5222 83.7874 38.7132C84.1768 38.8964 84.4867 39.1432 84.7172 39.4537V36.3127H86.4099V45.1506H84.7172V44.1713C84.5106 44.4977 84.2205 44.7605 83.847 44.9595C83.4735 45.1586 83.0404 45.2581 82.5477 45.2581C81.9914 45.2581 81.4828 45.1148 81.0219 44.8281C80.5609 44.5415 80.1954 44.1394 79.9252 43.6219C79.6629 43.0964 79.5318 42.4952 79.5318 41.8185ZM84.7291 41.8424C84.7291 41.4363 84.6496 41.0899 84.4907 40.8033C84.3317 40.5087 84.1172 40.2858 83.847 40.1345C83.5768 39.9752 83.2867 39.8956 82.9768 39.8956C82.6669 39.8956 82.3808 39.9713 82.1185 40.1225C81.8563 40.2738 81.6417 40.4968 81.4748 40.7914C81.3159 41.078 81.2364 41.4204 81.2364 41.8185C81.2364 42.2166 81.3159 42.5669 81.4748 42.8695C81.6417 43.1641 81.8563 43.391 82.1185 43.5502C82.3887 43.7095 82.6748 43.7891 82.9768 43.7891C83.2867 43.7891 83.5768 43.7135 83.847 43.5622C84.1172 43.4029 84.3317 43.18 84.4907 42.8934C84.6496 42.5988 84.7291 42.2484 84.7291 41.8424Z" fill="#6639F4"/>
<path d="M94.1788 41.699C94.1788 41.9379 94.1629 42.1529 94.1311 42.344H89.3033C89.3431 42.8217 89.51 43.1959 89.804 43.4666C90.098 43.7373 90.4596 43.8727 90.8887 43.8727C91.5086 43.8727 91.9497 43.606 92.2119 43.0725H94.0119C93.8212 43.7095 93.4556 44.235 92.9152 44.649C92.3748 45.0551 91.7112 45.2581 90.9245 45.2581C90.2888 45.2581 89.7166 45.1188 89.208 44.8401C88.7073 44.5535 88.3139 44.1514 88.0279 43.6338C87.7497 43.1163 87.6107 42.5191 87.6107 41.8424C87.6107 41.1576 87.7497 40.5565 88.0279 40.0389C88.306 39.5214 88.6954 39.1233 89.1961 38.8446C89.6967 38.5659 90.2729 38.4266 90.9245 38.4266C91.5523 38.4266 92.1126 38.562 92.6053 38.8327C93.1059 39.1034 93.4914 39.4896 93.7616 39.9912C94.0397 40.4848 94.1788 41.0541 94.1788 41.699ZM92.4503 41.2213C92.4424 40.7914 92.2874 40.449 91.9854 40.1942C91.6834 39.9314 91.3139 39.8001 90.8768 39.8001C90.4636 39.8001 90.1139 39.9275 89.8278 40.1823C89.5497 40.4291 89.3788 40.7754 89.3153 41.2213H92.4503Z" fill="#6639F4"/>
</svg>
