<svg width="128" height="48" viewBox="0 0 128 48" fill="none" xmlns="http://www.w3.org/2000/svg">
<path fill-rule="evenodd" clip-rule="evenodd" d="M21.1661 3.45459C32.5135 3.45459 41.712 12.6531 41.712 24.0004C41.712 35.347 32.5135 44.5455 21.1661 44.5455C9.81959 44.5455 0.621094 35.347 0.621094 24.0004C0.621094 12.6531 9.81959 3.45459 21.1661 3.45459Z" fill="#FFCC29"/>
<path d="M26.6237 15.7088H33.3435L33.5268 17.6048L33.6995 18.1465L34.0162 19.4517L33.8304 20.2307L34.2273 20.4468L33.7977 21.8371L34.3754 22.2977L33.7151 23.1652L34.4081 24.3795L33.6357 25.1855L33.7388 26.6347L33.2642 28.2083L33.4057 29.3114L32.5555 30.3187L28.4329 32.2925L26.6237 32.2262L26.4167 30.421L26.6237 29.6551V28.5921L26.6171 28.4653L26.6237 28.4465V27.5561L26.5091 27.3876L26.5189 26.2992L26.0852 25.1724L26.5157 24.6815L26.5058 23.4802L26.3479 22.9769L26.4985 21.9991L26.6237 21.3444V21.2798L26.3815 20.6194L26.6237 20.2291V19.9353L26.2751 19.3789L26.6008 18.8576L26.1687 18.5139L26.4232 17.9501L26.4625 17.0713L26.6237 15.7088ZM17.5946 30.6125L17.4694 29.8621L17.2582 29.0422L17.5946 28.2239V27.5881L17.4686 26.7869L16.9195 26.129L17.4636 25.9236L17.5373 25.2395L17.5831 23.9712L17.2681 23.5293L17.435 22.5302L17.2419 21.6603L17.3826 20.7324L17.3082 20.3445L17.2844 19.8838L17.3802 19.2095L16.8295 18.8634L17.5201 18.203L17.2951 17.757L17.5946 15.7203H24.3513L24.6148 17.4412L25.0632 17.4633L25.0165 18.077L24.5681 19.1252L24.4225 19.8543L24.9429 20.4558L24.9511 21.5924L25.2301 22.2879L25.1548 23.2257L26.1466 23.1725L25.2203 24.2044L25.2669 25.1045L25.2948 25.7845L24.9928 26.4089L25.2817 27.2141L24.9486 28.0226L25.3144 28.6813L25.0329 29.0119L25.082 29.561L24.5918 30.1272L24.5166 31.0871L24.3513 32.245H17.5946V30.6125ZM8.59001 15.7088L8.14241 16.6278L8.48691 16.9845L7.92556 17.9305L8.22669 18.32L8.08594 18.8102L8.21769 19.6072L8.32162 20.3232L8.30034 20.7896L8.59001 21.4173V21.4721L8.23978 21.8747L8.38053 22.9074L8.59001 23.9728V24.3672L8.33961 25.0497L8.59001 26.2608V26.3737L8.1825 27.489L8.04748 27.6282L8.25124 28.4734L13.0669 32.2777L15.3099 32.2327L15.3999 30.8089L15.4875 29.8883L15.4613 28.8695L15.8647 27.5553L15.7239 26.5218L16.3917 24.9679L16.2313 24.0882L16.3909 22.2356L16.0153 21.211L16.2477 20.6162L15.8164 20.3265L16.021 19.338L15.5906 18.7357L15.5276 17.4002L15.5496 17.0099L15.3189 15.9608L15.3099 15.7088H8.59001Z" fill="black"/>
<path d="M77.4697 13.6412L74.217 26.37L70.1018 13.6412H65.3178L61.2524 26.3183L58.0439 13.6412H51.1016L57.7123 32.7814H64.1237L67.7098 21.9674L71.3017 32.7814H77.7572L84.2644 13.6412H77.4697ZM93.8345 33.1647C100.246 33.1647 104.457 28.9537 104.457 23.2113C104.457 17.4689 100.246 13.2578 93.8345 13.2578C87.4212 13.2578 83.1661 17.4689 83.1661 23.2113C83.1661 28.9537 87.4212 33.1647 93.8345 33.1647ZM93.8345 27.7539C91.2048 27.7098 89.2919 25.795 89.2919 23.2113C89.2919 20.6276 91.2048 18.7128 93.8345 18.6629C96.4182 18.7128 98.3828 20.6276 98.3828 23.2113C98.3828 25.795 96.4182 27.7098 93.8345 27.7539ZM106.42 32.7814H112.545V0H106.42V32.7814ZM127.377 13.6412H122.828V7.89873C122.828 6.31745 123.691 5.36102 124.985 5.36102H127.281V0.575011C126.804 0.243421 125.508 0 124.22 0C120.149 0 116.705 3.11463 116.705 7.17805V13.6412H113.502V18.3754H116.705V32.7814H122.828V18.3754H127.377V13.6412Z" fill="white"/>
<path d="M58.5791 39.716H55.6504V47.8907H56.5225V44.2528H58.5791C59.8461 44.2528 60.8542 43.258 60.8542 41.9911C60.8542 40.7376 59.8461 39.716 58.5791 39.716ZM58.4967 43.421H56.5225V40.5612H58.4967C59.3132 40.5612 59.9821 41.1324 59.9821 42.0045C59.9821 42.9034 59.3132 43.421 58.4967 43.421ZM69.1574 44.1569C70.2346 44.0074 71.053 43.1085 71.053 42.0045C71.053 40.7241 70.0295 39.716 68.776 39.716H65.8492V47.8907H66.7194V44.1972H68.2585L70.5758 47.8907H71.5705L69.1574 44.1569ZM66.7194 43.3673V40.5881H68.7223C69.5388 40.5881 70.1809 41.1612 70.1809 41.9777C70.1809 42.8076 69.5542 43.3673 68.7223 43.3673H66.7194ZM80.3241 47.9999C82.6529 47.9999 84.5217 46.1197 84.5217 43.8043C84.5217 41.487 82.6529 39.6067 80.3241 39.6067C78.0087 39.6067 76.1284 41.487 76.1284 43.8043C76.1284 46.1197 78.0087 47.9999 80.3241 47.9999ZM80.3241 47.1278C78.4841 47.1278 77.0006 45.6558 77.0006 43.8043C77.0006 41.9508 78.4841 40.4788 80.3241 40.4788C82.1776 40.4788 83.6496 41.9508 83.6496 43.8043C83.6496 45.6558 82.1776 47.1278 80.3241 47.1278ZM94.1225 47.0186V39.716H93.2504V47.8907H97.1585V47.0186H94.1225ZM102.113 47.8907H102.985V39.716H102.113V47.8907ZM114.67 39.716V46.4321L109.615 39.716H108.799V47.8907H109.671V41.1727L114.712 47.8907H115.528V39.716H114.67ZM126.164 47.8907H127.375L123.492 43.4899L127.226 39.716H126.013L122.729 43.0683H122.158V39.716H121.286V47.8907H122.158V43.8848H122.743L126.164 47.8907Z" fill="white"/>
</svg>
